<svg width="18" height="18" viewBox="0 0 18 18" fill="none" xmlns="http://www.w3.org/2000/svg">
<path d="M13.996 11.1224L12.1579 10.9126C11.7164 10.8619 11.2822 11.0139 10.9711 11.3251L9.63948 12.6566C7.59147 11.6145 5.91254 9.94283 4.87044 7.88758L6.20925 6.54876C6.52043 6.23758 6.6724 5.80337 6.62174 5.36192L6.41188 3.53824C6.32504 2.80732 5.70991 2.25732 4.97176 2.25732H3.71979C2.90203 2.25732 2.22178 2.93759 2.27243 3.75535C2.65598 9.9356 7.59871 14.8711 13.7717 15.2547C14.5894 15.3053 15.2697 14.6251 15.2697 13.8073V12.5553C15.2769 11.8244 14.7269 11.2093 13.996 11.1224V11.1224Z" fill="#212121"/>
</svg>
